<?xml version="1.0" standalone="no"?><!DOCTYPE svg PUBLIC "-//W3C//DTD SVG 1.1//EN" "http://www.w3.org/Graphics/SVG/1.1/DTD/svg11.dtd"><svg t="1539308372689" class="icon" style="" viewBox="0 0 1024 1024" version="1.1" xmlns="http://www.w3.org/2000/svg" p-id="1950" xmlns:xlink="http://www.w3.org/1999/xlink" width="200" height="200"><defs><style type="text/css"></style></defs><path d="M202.994004 845.928748 202.994004 169.04127c0-32.507937 26.367549-58.875485 58.875485-58.875485L762.130511 110.165785c32.507937 0 58.875485 26.367549 58.875485 58.875485l0 443.913933 58.875485 0L879.881481 169.04127c0-65.015873-52.735097-117.75097-117.75097-117.75097L261.869489 51.2903c-65.015873 0-117.75097 52.735097-117.75097 117.75097l0 676.887478c0 65.015873 52.735097 117.75097 117.75097 117.75097l235.50194 0 0-58.875485L261.869489 904.804233C229.361552 904.804233 202.994004 878.436684 202.994004 845.928748z" p-id="1951"></path><path d="M718.064198 404.54321c0-16.253968-13.364374-29.257143-29.257143-29.257143L335.192945 375.286067c-16.253968 0-29.257143 13.364374-29.257143 29.257143 0 16.253968 13.364374 29.257143 29.257143 29.257143l353.25291 0C704.699824 433.800353 718.064198 420.797178 718.064198 404.54321z" p-id="1952"></path><path d="M327.968959 522.29418c-12.280776 0-22.033157 9.752381-22.033157 22.033157 0 12.280776 9.752381 22.033157 22.033157 22.033157l117.75097 0c12.280776 0 22.033157-9.752381 22.033157-22.033157 0-12.280776-9.752381-22.033157-22.033157-22.033157L327.968959 522.29418z" p-id="1953"></path><path d="M688.445855 227.916755 335.192945 227.916755c-16.253968 0-29.257143 13.364374-29.257143 29.257143 0 16.253968 13.364374 29.257143 29.257143 29.257143l353.25291 0c16.253968 0 29.257143-13.364374 29.257143-29.257143C718.064198 240.919929 704.699824 227.916755 688.445855 227.916755z" p-id="1954"></path><path d="M533.852557 522.29418l-14.809171 0c-12.280776 0-22.033157 9.752381-22.033157 22.033157 0 12.280776 9.752381 22.033157 22.033157 22.033157l14.809171 0c12.280776 0 22.033157-9.752381 22.033157-22.033157C556.246914 532.046561 546.133333 522.29418 533.852557 522.29418z" p-id="1955"></path><path d="M879.881481 748.043739c-26.006349-43.343915-25.64515-44.066314-25.64515-44.066314s-89.938624 25.283951-106.553792-61.042681l-52.012698 0c0 0-14.447972 86.326631-106.192593 60.681481-26.367549 44.066314-27.451146 45.511111-27.451146 45.511111 0 0 71.87866 50.206702 0 118.473369l27.812346 45.87231c0 0 79.463845-34.313933 105.470194 59.236684l52.735097 0c0 0 16.615168-85.965432 105.831393-60.681481 25.283951-43.343915 25.64515-43.705115 25.64515-43.705115S811.976014 810.170018 879.881481 748.043739zM720.592593 868.323104c-33.591534 0-60.681481-27.089947-60.681481-60.681481 0-33.591534 27.089947-60.681481 60.681481-60.681481 33.591534 0 60.681481 27.089947 60.681481 60.681481C781.274074 841.233157 754.184127 868.323104 720.592593 868.323104z" p-id="1956"></path></svg>